<svg width="20" height="20" viewBox="0 0 20 20" fill="none" xmlns="http://www.w3.org/2000/svg">
<path d="M16.4558 10.8671L9.79965 11.2935C9.36136 11.3165 8.95695 11.0627 8.79444 10.6627C8.7254 10.4594 8.69173 10.2462 8.69482 10.0319C8.55898 7.97059 8.41408 5.90929 8.27824 3.81245C8.2473 3.72163 8.20469 3.63505 8.15146 3.55479C7.93762 3.11247 7.4462 2.86776 6.95607 2.9595C2.90728 3.81906 0.0136824 7.32706 0.00106199 11.3913C-0.0051696 11.7212 0.0160313 12.051 0.064454 12.3775C0.189303 13.4794 0.537217 14.5457 1.08778 15.5139C2.96017 18.8754 6.86938 20.621 10.6828 19.7982C14.4962 18.9755 17.2984 15.782 17.5606 11.9599C17.5655 11.6795 17.4566 11.4087 17.2579 11.207C17.0591 11.0054 16.7869 10.8895 16.5011 10.8848L16.4558 10.8671Z" fill="white"/>
<path opacity="0.6" d="M10.9136 0.000824899C10.6973 -0.00881318 10.4861 0.0663223 10.3264 0.209663C10.1667 0.353003 10.0717 0.552776 10.0623 0.764928V0.889316L10.5785 8.43261C10.5774 8.68278 10.684 8.92179 10.8719 9.09092C11.0598 9.26005 11.3116 9.34362 11.5656 9.3211L19.2451 8.81466C19.459 8.80099 19.6586 8.70425 19.7996 8.54585C19.9407 8.38745 20.0116 8.18043 19.9967 7.97059C20.0011 7.94411 20.0011 7.91711 19.9967 7.89063C19.3044 3.4558 15.4844 0.137655 10.9136 0.000824899Z" fill="white"/>
</svg>
